<?xml version="1.0" encoding="utf-8"?><svg viewBox="0 0 512.08 512.08" xmlns="http://www.w3.org/2000/svg" xmlns:xlink="http://www.w3.org/1999/xlink"><style>:root>svg{display:none}:root>svg:target{display:block}</style><svg fill="none" viewBox="0 0 37 41" id="1" xmlns="http://www.w3.org/2000/svg"><g filter="url(#afilter0_d)"><path d="M8 15.258L17.767 33C19.437 20.788 21.877 15.314 29 8" stroke="#fff" stroke-width="5" stroke-linecap="round" stroke-linejoin="round"/></g><defs><filter id="afilter0_d" x=".5" y=".5" width="36.001" height="40" filterUnits="userSpaceOnUse" color-interpolation-filters="sRGB"><feFlood flood-opacity="0" result="BackgroundImageFix"/><feColorMatrix in="SourceAlpha" values="0 0 0 0 0 0 0 0 0 0 0 0 0 0 0 0 0 0 127 0"/><feOffset/><feGaussianBlur stdDeviation="2.5"/><feColorMatrix values="0 0 0 0 0.0394444 0 0 0 0 0.133333 0 0 0 0 0.0488333 0 0 0 1 0"/><feBlend in2="BackgroundImageFix" result="effect1_dropShadow"/><feBlend in="SourceGraphic" in2="effect1_dropShadow" result="shape"/></filter></defs></svg><svg fill="none" viewBox="0 0 52 52" id="2" xmlns="http://www.w3.org/2000/svg"><g filter="url(#bfilter0_di)"><circle cx="26" cy="22" r="20" fill="#D5A129"/><circle cx="26" cy="22" r="21" stroke="#D4CDC4" stroke-width="2"/></g><g filter="url(#bfilter1_di)"><path d="M24.267 10.952a2 2 0 10-2.534 3.096l2.534-3.096zM34 21.5l1.381 1.447a2 2 0 00-.114-2.995L34 21.5zm-12.381 9.053a2 2 0 002.762 2.894l-2.762-2.894zm.114-16.505l11 9 2.534-3.096-11-9-2.534 3.096zm10.886 6.005l-11 10.5 2.762 2.894 11-10.5-2.762-2.894z" fill="#787132"/></g><defs><filter id="bfilter0_di" x="0" y="-8" width="52" height="60" filterUnits="userSpaceOnUse" color-interpolation-filters="sRGB"><feFlood flood-opacity="0" result="BackgroundImageFix"/><feColorMatrix in="SourceAlpha" values="0 0 0 0 0 0 0 0 0 0 0 0 0 0 0 0 0 0 127 0"/><feOffset dy="4"/><feGaussianBlur stdDeviation="2"/><feColorMatrix values="0 0 0 0 0 0 0 0 0 0 0 0 0 0 0 0 0 0 0.25 0"/><feBlend in2="BackgroundImageFix" result="effect1_dropShadow"/><feBlend in="SourceGraphic" in2="effect1_dropShadow" result="shape"/><feColorMatrix in="SourceAlpha" values="0 0 0 0 0 0 0 0 0 0 0 0 0 0 0 0 0 0 127 0" result="hardAlpha"/><feOffset dy="-8"/><feGaussianBlur stdDeviation="5"/><feComposite in2="hardAlpha" operator="arithmetic" k2="-1" k3="1"/><feColorMatrix values="0 0 0 0 0.6875 0 0 0 0 0.325302 0 0 0 0 0.0630208 0 0 0 1 0"/><feBlend in2="shape" result="effect2_innerShadow"/></filter><filter id="bfilter1_di" x="17" y="6.5" width="23" height="31.5" filterUnits="userSpaceOnUse" color-interpolation-filters="sRGB"><feFlood flood-opacity="0" result="BackgroundImageFix"/><feColorMatrix in="SourceAlpha" values="0 0 0 0 0 0 0 0 0 0 0 0 0 0 0 0 0 0 127 0"/><feOffset/><feGaussianBlur stdDeviation="2"/><feColorMatrix values="0 0 0 0 0 0 0 0 0 0 0 0 0 0 0 0 0 0 0.25 0"/><feBlend in2="BackgroundImageFix" result="effect1_dropShadow"/><feBlend in="SourceGraphic" in2="effect1_dropShadow" result="shape"/><feColorMatrix in="SourceAlpha" values="0 0 0 0 0 0 0 0 0 0 0 0 0 0 0 0 0 0 127 0" result="hardAlpha"/><feOffset/><feGaussianBlur stdDeviation="1"/><feComposite in2="hardAlpha" operator="arithmetic" k2="-1" k3="1"/><feColorMatrix values="0 0 0 0 0 0 0 0 0 0 0 0 0 0 0 0 0 0 0.8 0"/><feBlend in2="shape" result="effect2_innerShadow"/></filter></defs></svg><svg viewBox="0 0 512 512" id="3" xmlns="http://www.w3.org/2000/svg"><path d="M467 61H45C20.218 61 0 81.196 0 106v300c0 24.72 20.128 45 45 45h422c24.72 0 45-20.128 45-45V106c0-24.72-20.128-45-45-45zm-6.214 30L256.954 294.833 51.359 91h409.427zM30 399.788V112.069l144.479 143.24L30 399.788zM51.213 421l144.57-144.57 50.657 50.222c5.864 5.814 15.327 5.795 21.167-.046L317 277.213 460.787 421H51.213zM482 399.787L338.213 256 482 112.212v287.575z"/></svg><svg viewBox="0 0 512.076 512.076" id="4" xmlns="http://www.w3.org/2000/svg"><path d="M498.639 395.039l-103.646-69.12c-13.153-8.701-30.784-5.838-40.508 6.579l-30.191 38.818a12.903 12.903 0 01-16.546 3.482l-5.743-3.166c-19.038-10.377-42.726-23.296-90.453-71.04s-60.672-71.45-71.049-90.453l-3.149-5.743a12.92 12.92 0 013.413-16.606l38.792-30.182c12.412-9.725 15.279-27.351 6.588-40.508l-69.12-103.646C108.12.056 90.25-3.966 76.461 4.323L33.12 30.358A61.136 61.136 0 005.242 66.539c-15.607 56.866-3.866 155.008 140.706 299.597 115.004 114.995 200.619 145.92 259.465 145.92a151.181 151.181 0 0040.107-5.239 61.079 61.079 0 0036.181-27.878l26.061-43.315c8.301-13.792 4.281-31.673-9.123-40.585zm-5.581 31.829l-26.001 43.341a44.103 44.103 0 01-26.027 20.173c-52.497 14.413-144.213 2.475-283.008-136.32S7.29 123.559 21.703 71.054a44.17 44.17 0 0120.198-26.061l43.341-26.001c5.983-3.6 13.739-1.855 17.604 3.959l37.547 56.371 31.514 47.266c3.774 5.707 2.534 13.356-2.85 17.579l-38.801 30.182c-11.808 9.029-15.18 25.366-7.91 38.332l3.081 5.598c10.906 20.002 24.465 44.885 73.967 94.379 49.502 49.493 74.377 63.053 94.37 73.958l5.606 3.089c12.965 7.269 29.303 3.898 38.332-7.91l30.182-38.801c4.224-5.381 11.87-6.62 17.579-2.85l103.637 69.12c5.818 3.862 7.563 11.622 3.958 17.604zM290.161 85.39c80.081.089 144.977 64.986 145.067 145.067 0 4.713 3.82 8.533 8.533 8.533s8.533-3.82 8.533-8.533c-.099-89.503-72.63-162.035-162.133-162.133-4.713 0-8.533 3.82-8.533 8.533s3.82 8.533 8.533 8.533z"/><path d="M290.161 136.59c51.816.061 93.806 42.051 93.867 93.867a8.533 8.533 0 0017.066 0c-.071-61.238-49.696-110.863-110.933-110.933-4.713 0-8.533 3.82-8.533 8.533s3.82 8.533 8.533 8.533z"/><path d="M290.161 187.79c23.552.028 42.638 19.114 42.667 42.667a8.533 8.533 0 0017.066 0c-.038-32.974-26.759-59.696-59.733-59.733-4.713 0-8.533 3.82-8.533 8.533s3.82 8.533 8.533 8.533z"/></svg></svg>